<?xml version="1.0" encoding="UTF-8" standalone="no"?>
<svg width="20px" height="20px" viewBox="0 0 20 20" version="1.1" xmlns="http://www.w3.org/2000/svg" xmlns:xlink="http://www.w3.org/1999/xlink">
    <!-- Generator: sketchtool 45.2 (43514) - http://www.bohemiancoding.com/sketch -->
    <title>0A7906B2-0615-4349-81B1-01A75BCFA55F</title>
    <desc>Created with sketchtool.</desc>
    <defs></defs>
    <g id="Symbols" stroke="none" stroke-width="1" fill="none" fill-rule="evenodd">
        <g id="btn_WhereToFind">
            <g id="Group">
                <g id="Group-5" transform="translate(1.000000, 1.000000)" stroke="#666666">
                    <circle id="Oval-2" cx="9" cy="9" r="9"></circle>
                </g>
                <path d="M13,7.50164582 C13,7.9317555 12.9171606,8.31467903 12.7514793,8.65042791 C12.585798,8.98617679 12.3680487,9.28351856 12.0982249,9.54246215 C11.8331348,9.79262798 11.5278124,10.0274292 11.1822485,10.2468729 C10.8366847,10.4663167 10.4698244,10.6791739 10.0816568,10.885451 L10.0816568,12.3666886 L8.81065089,12.3666886 L8.81065089,10.3587887 C9.11834473,10.1964003 9.45088579,10.0186536 9.80828402,9.82554312 C10.1656823,9.63243265 10.457987,9.43713068 10.6852071,9.23963134 C10.9597647,9.01140987 11.1727803,8.77551142 11.3242604,8.5319289 C11.4757404,8.28834638 11.5514793,7.97783818 11.5514793,7.600395 C11.5514793,7.10445221 11.370416,6.7346951 11.008284,6.49111257 C10.646152,6.24753005 10.1787011,6.12574062 9.60591716,6.12574062 C9.094672,6.12574062 8.61065317,6.20035036 8.15384615,6.34957209 C7.69703914,6.49879381 7.336096,6.6502077 7.07100592,6.8038183 L7,6.8038183 L7,5.46082949 C7.3313626,5.34232989 7.75147675,5.23590128 8.26035503,5.14154049 C8.76923331,5.04717969 9.2508853,5 9.70532544,5 C10.723082,5 11.5266243,5.22931524 12.1159763,5.6879526 C12.7053284,6.14658996 13,6.75114832 13,7.50164582 Z M10.1952663,15 L8.74674556,15 L8.74674556,13.6109282 L10.1952663,13.6109282 L10.1952663,15 Z" id="?" fill="#666666"></path>
            </g>
        </g>
    </g>
</svg>