<svg xmlns="http://www.w3.org/2000/svg" width="9" height="9" viewBox="0 0 9 9">
    <path fill="#666" fill-rule="nonzero" d="M8.44 7.11L5.826 4.5l2.61-2.613A.764.764 0 0 0 8.438.804L8.196.561a.754.754 0 0 0-.542-.226h-.001A.76.76 0 0 0 7.11.56L4.5 3.174 1.888.564A.764.764 0 0 0 .806.561l-.244.24a.763.763 0 0 0-.001 1.086L3.174 4.5.564 7.111a.765.765 0 0 0-.001 1.085l.242.243a.768.768 0 0 0 1.086 0L4.5 5.826l2.611 2.61a.764.764 0 0 0 1.084.002l.242-.242a.751.751 0 0 0 .226-.543.76.76 0 0 0-.223-.543h-.002z"/>
</svg>
