<svg xmlns="http://www.w3.org/2000/svg" xmlns:xlink="http://www.w3.org/1999/xlink" width="320" height="105" viewBox="0 0 320 105">
    <defs>
        <path id="a" d="M21 80.976h106.414V10H21z"/>
    </defs>
    <g fill="none" fill-rule="evenodd">
        <path d="M0 0h320v105H0z"/>
        <g transform="translate(94 3)">
            <path d="M0 0h132v93H0z"/>
            <mask id="b" fill="#fff">
                <use xlink:href="#a"/>
            </mask>
            <path fill="#FFF" stroke="#377D2F" d="M112.218 38.337c-7.803 0-14.128-6.236-14.128-13.929 0-7.693 6.325-13.929 14.128-13.929s14.128 6.236 14.128 13.929c0 7.693-6.325 13.929-14.128 13.929z" mask="url(#b)"/>
            <path stroke="#377D2F" d="M117.811 20.143l-7.455 8.42-3.375-3.813" mask="url(#b)"/>
            <path fill="#FFF" stroke="#222" d="M43.13 65.495h24.227v-33H43.131z" mask="url(#b)"/>
            <path fill="#FFF" d="M46.16 40.495h8.075v-4h-8.076z" mask="url(#b)"/>
            <path stroke="#222" d="M46.16 40.495h8.075v-4h-8.076z" mask="url(#b)"/>
            <path fill="#FFF" d="M70.358 43.076l1.589 8.419h13.961l1.571-8.319" mask="url(#b)"/>
            <path stroke="#222" d="M70.358 43.076l1.589 8.419h13.961l1.571-8.319" mask="url(#b)"/>
            <path fill="#FFF" d="M69.376 43.495h18.17v-3h-18.17z" mask="url(#b)"/>
            <path stroke="#222" stroke-width="1.083" d="M69.376 43.495h18.17v-3h-18.17z" mask="url(#b)"/>
            <path stroke="#222" d="M79 40.995v-15M84.116 25.653c.012-.406.033-.804-.188-1.147-.496-.766-1.634-.919-2.541-.343-.909.576-2.439 3.211-2.305 3.418" mask="url(#b)"/>
            <path stroke="#222" d="M73.967 25.653c-.01-.406-.032-.804.19-1.147.495-.766 1.632-.919 2.54-.343.908.576 2.439 3.211 2.305 3.418M84.116 31.195c.012-.406.033-.804-.188-1.147-.496-.766-1.634-.92-2.541-.343-.909.576-2.439 3.21-2.305 3.418" mask="url(#b)"/>
            <path stroke="#222" d="M73.967 31.195c-.01-.406-.032-.804.19-1.147.495-.766 1.632-.92 2.54-.343.908.576 2.439 3.21 2.305 3.418" mask="url(#b)"/>
            <path fill="#FFF" d="M67.357 65.495h23.217v-14H67.357z" mask="url(#b)"/>
            <path stroke="#222" d="M67.357 65.495h23.217v-14H67.357z" mask="url(#b)"/>
            <path fill="#FFF" d="M70.386 58.495h8.075v-4h-8.075z" mask="url(#b)"/>
            <path stroke="#222" d="M70.386 58.495h8.075v-4h-8.075zM48.316 72.131a4.025 4.025 0 0 1 2.72 3.079c.41 2.18-1.04 4.276-3.24 4.682-2.2.407-4.317-1.03-4.726-3.21-.411-2.179 1.04-4.275 3.24-4.682M98.316 72.131a4.025 4.025 0 0 1 2.72 3.079c.41 2.18-1.04 4.276-3.24 4.682-2.2.407-4.317-1.03-4.726-3.21-.411-2.179 1.04-4.275 3.24-4.682M47.043 75.89l3.155-7.43M100.271 68.46l-3.154 7.43" mask="url(#b)"/>
            <path fill="#FFF" d="M33.036 68.495h75.708v-3H33.036z" mask="url(#b)"/>
            <path stroke="#222" d="M33.036 68.495h75.708v-3H33.036z" mask="url(#b)"/>
            <path stroke="#222" d="M29.58 39.201l-6.792-5.12a2.624 2.624 0 0 1-1.282-2.326l.115-3.862c.074-1.511 1.165-2.379 2.905-1.338l7.41 5.535.924.885c2.239 2.377 4.214 5.603 4.214 9.715v23.305" mask="url(#b)"/>
        </g>
    </g>
</svg>
