<svg xmlns="http://www.w3.org/2000/svg" width="59" height="54" viewBox="0 0 59 54">
    <g fill="none" fill-rule="evenodd">
        <rect width="38" height="44" x="10" y="1" stroke="#D8D8D8" stroke-width="2" rx="4"/>
        <path fill="#f0f0f0" d="M5 37h45v16H5z"/>
        <g fill-rule="nonzero">
            <path fill="#939598" d="M24 39.012h-3.18a6690.856 6690.856 0 0 1-5.345 14.026c-.13.307-.289.603-.475.882h.116V54h2.041c.542 0 1.122-.353 1.406-.838.047-.074.086-.153.118-.234l1.302-3.416h.005c1.624-4.26 3.828-10.046 3.996-10.512"/>
            <path fill="#EF7622" d="M55.917 46.513l-1.27 3.398c-.22.585-.872 1.062-1.47 1.062h-2.125c.22-.333.4-.69.539-1.062l1.272-3.397H49.8l-1.268 3.398c-.218.586-.877 1.062-1.477 1.062l-1.025.08-1.102-.08c.218-.334.397-.69.536-1.062l1.271-3.398H43.68l-1.27 3.398c-.218.585-.874 1.062-1.475 1.062h-9.794c.221-.328.404-.68.546-1.048l.327-.876c.83-2.23-.355-4.05-2.648-4.05h-3.478l-1.127 3.027h3.496c.611 0 .928.485.705 1.08l-.345.887c-.222.596-.883 1.06-1.494 1.06h-5.026L21 54h31.062c2.298 0 4.813-1.802 5.65-4.044L59 46.513h-3.083zM7.917 53.964H0l1.075-2.961h7.901c.597 0 1.26-.488 1.478-1.086l.313-.87c.217-.598-.092-1.086-.69-1.086H5.173L6.242 45h4.916c2.234 0 3.396 1.826 2.582 4.071l-.305.858C12.62 52.169 10.136 54 7.897 54"/>
        </g>
        <circle cx="29" cy="15" r="6" fill="#D8D8D8"/>
        <rect width="25" height="2" x="17" y="26" fill="#D8D8D8" rx="1"/>
        <rect width="18" height="2" x="20" y="31" fill="#D8D8D8" rx="1"/>
    </g>
</svg>
