<?xml version="1.0" encoding="UTF-8"?>
<svg width="44px" height="32px" viewBox="0 0 44 32" version="1.1" xmlns="http://www.w3.org/2000/svg" xmlns:xlink="http://www.w3.org/1999/xlink">
    <!-- Generator: Sketch 50.2 (55047) - http://www.bohemiancoding.com/sketch -->
    <title>Credit/Debit Card@web</title>
    <desc>Created with Sketch.</desc>
    <defs></defs>
    <g id="7.2_Order-confirmation" stroke="none" stroke-width="1" fill="none" fill-rule="evenodd">
        <g id="FR_7.2_4_MobileWebsite_Review&amp;Pay_SeparateBilling-Copy-5" transform="translate(-261.000000, -619.000000)">
            <g id="Credit/Debit-Card" transform="translate(261.000000, 618.000000)">
                <g id="Group-26" transform="translate(24.000000, 15.352170) rotate(16.000000) translate(-24.000000, -15.352170) translate(6.000000, 4.852170)">
                    <rect id="Rectangle-5" stroke="#8C8C8C" fill="#FFFFFF" x="1.37145354" y="0.5" width="34.1285465" height="20" rx="2.5"></rect>
                    <circle id="Oval-3" stroke="#444444" fill="#FFFFFF" cx="29" cy="15" r="2"></circle>
                    <rect id="Rectangle-10" fill="#444444" x="5" y="12" width="15" height="1"></rect>
                    <rect id="Rectangle-10" fill="#444444" x="5" y="14" width="12" height="1"></rect>
                    <rect id="Rectangle-10" fill="#444444" x="5" y="16" width="9" height="1"></rect>
                    <rect id="Rectangle-7" fill="#8C8C8C" x="1.22192983" y="5" width="34.2978451" height="5"></rect>
                </g>
                <g id="Group-4" transform="translate(0.000000, 11.000000)">
                    <g id="Group-26" transform="translate(0.000000, 0.852170)">
                        <rect id="Rectangle-5" stroke="#8C8C8C" fill="#FFFFFF" x="1.37145354" y="0.5" width="34.1285465" height="20" rx="2.5"></rect>
                        <circle id="Oval-3" stroke="#8C8C8C" fill="#FFFFFF" cx="29" cy="15" r="2"></circle>
                        <rect id="Rectangle-10" fill="#8C8C8C" x="5" y="12" width="15" height="1"></rect>
                        <rect id="Rectangle-10" fill="#8C8C8C" x="5" y="14" width="12" height="1"></rect>
                        <rect id="Rectangle-10" fill="#8C8C8C" x="5" y="16" width="9" height="1"></rect>
                        <rect id="Rectangle-7" fill="#8C8C8C" x="1.22192983" y="5" width="34.2978451" height="5"></rect>
                    </g>
                </g>
            </g>
        </g>
    </g>
</svg>