<svg xmlns="http://www.w3.org/2000/svg" width="14" height="13" viewBox="0 0 14 13">
    <g fill="#222" fill-rule="evenodd">
        <path d="M.93 1v6.5h.482v-6H7.2V1zM9.684.856L2.369 8.44 1.412 12.5l4.065-.835 7.315-7.582L9.684.856zM2.799 8.73l6.885-7.166 2.426 2.52-6.882 7.133-3.143.616L2.8 8.73zM2.696 8.711l2.876 2.821"/>
        <path d="M5.258 11.568L2.53 8.893l.332-.363 2.876 2.82zM2.03 11l.895 1.003-1.513.497zM2.376 3.5h2.895V3H2.376zM2.376 5h1.93v-.5h-1.93z"/>
        <g>
            <path d="M9.13 11h4.34v-.5H9.13z"/>
            <path d="M10.576 8.5l-1.929 2.252.342.354L10.396 13h.663l-1.727-2.25 1.91-2.25z"/>
        </g>
    </g>
</svg>
