<svg xmlns="http://www.w3.org/2000/svg" xmlns:xlink="http://www.w3.org/1999/xlink" width="49" height="52" viewBox="0 0 49 52">
    <defs>
        <path id="a" d="M3.377 9h32.246c.928 0 1.636.777 1.687 1.703l1.688 30.594c.05.925-.772 1.703-1.688 1.703H1.69C.772 43-.05 42.232.001 41.297L1.69 10.703C1.74 9.768 2.45 9 3.377 9z"/>
        <path id="b" d="M26 14V7.461C26 3.362 22.85 0 19 0s-7 3.357-7 7.461V14"/>
    </defs>
    <g fill="none" fill-rule="evenodd" transform="translate(1 1)">
        <use stroke="#C8C8C9" stroke-width="2" xlink:href="#a"/>
        <use stroke="#D8D8D8" xlink:href="#a"/>
        <path fill="#C7C7C7" d="M26.893 12c1.164 0 2.107.895 2.107 2 0 1.104-.943 2-2.107 2-1.163 0-2.107-.896-2.107-2 0-1.105.944-2 2.107-2m-14.786 0c1.164 0 2.108.895 2.108 2 0 1.104-.944 2-2.108 2C10.944 16 10 15.104 10 14c0-1.105.944-2 2.107-2"/>
        <use stroke="#C8C8C9" stroke-width="2" xlink:href="#b"/>
        <use stroke="#D8D8D8" xlink:href="#b"/>
        <circle cx="34.5" cy="36.5" r="12.5" fill="#f0f0f0"/>
        <circle cx="36.5" cy="39.5" r="11.5" fill="#19AC48"/>
        <path stroke="#f0f0f0" stroke-linecap="square" stroke-width="2" d="M34.714 43.286l8-8m-11.428 5.143l2.857 2.857"/>
    </g>
</svg>
