<svg xmlns="http://www.w3.org/2000/svg" width="18" height="20" viewBox="0 0 18 20">
    <g fill="none" fill-rule="evenodd" stroke="#000" stroke-width=".7">
        <path fill="#FFF" d="M16.88 8.229l-7.178 5.787-3.765-4.533 7.178-5.787z"/>
        <path d="M14.03 6.29l-2.2 1.775-1.036-1.246 2.2-1.775zM14.748 18.196c0 .561-.463 1.017-1.033 1.017-.57 0-1.032-.456-1.032-1.017 0-.562.462-1.018 1.032-1.018.57 0 1.033.456 1.033 1.018z"/>
        <path fill="#FFF" d="M5.397 15.211h9.5l1.984-5.583H3.778"/>
        <path d="M0 8.01h3.568l.413 1.733 2.106 8.846h6.573"/>
        <path fill="#FFF" d="M7.462 18.196c0 .561-.462 1.017-1.032 1.017-.57 0-1.033-.456-1.033-1.017 0-.562.462-1.018 1.033-1.018.57 0 1.032.456 1.032 1.018z"/>
        <path stroke-linecap="round" d="M9.063 1.68l2.073 1.725M11.95.25l.475 2.642M14.666.413l-.84 2.48M16.963 1.868l-2.017 1.564"/>
    </g>
</svg>
