<svg xmlns="http://www.w3.org/2000/svg" width="21" height="21" viewBox="0 0 21 21">
    <g fill="none" fill-rule="evenodd" transform="translate(1 1)">
        <g fill="#000" fill-rule="nonzero">
            <path d="M9.975 11.13c2.018 0 3.661-1.604 3.661-3.573 0-1.971-1.643-3.574-3.661-3.574s-3.66 1.603-3.66 3.574c0 1.97 1.642 3.573 3.66 3.573zm0-6.339c1.562 0 2.832 1.241 2.832 2.765 0 1.525-1.27 2.764-2.832 2.764-1.562 0-2.832-1.24-2.832-2.764 0-1.524 1.27-2.765 2.832-2.765zM9.975 12.331c-2.796 0-5.255 1.743-6.118 4.337l.789.25c.752-2.26 2.893-3.777 5.329-3.777s4.578 1.517 5.33 3.776l.788-.25c-.863-2.593-3.322-4.336-6.118-4.336z"/>
        </g>
        <circle cx="9.5" cy="9.5" r="9.5" stroke="#222"/>
    </g>
</svg>
