<svg xmlns="http://www.w3.org/2000/svg" width="18" height="16" viewBox="0 0 18 16">
    <g fill="none" fill-rule="evenodd">
        <path fill="#FFF" d="M1.152 14.662h11.232V1.15H1.152z"/>
        <path stroke="#000" stroke-width=".7" d="M1.152 14.662h11.232V1.15H1.152z"/>
        <path fill="#FFF" d="M2.822 2.651h7.892-7.892zM2.822 4.153h7.892-7.892zM2.822 5.654h3.035-3.035zM16.938 12.355l-.696 1.705a.233.233 0 0 1-.43 0l-.696-1.705V2.588c0-.462.38-.837.846-.837h.13c.466 0 .846.375.846.837v9.767z"/>
        <path stroke="#000" stroke-width=".7" d="M16.938 12.355l-.696 1.705a.233.233 0 0 1-.43 0l-.696-1.705V2.588c0-.462.38-.837.846-.837h.13c.466 0 .846.375.846.837v9.767zM14.964 12.05h2.125"/>
        <path fill="#FFF" d="M14.813 3.552h2.732v-.9h-2.733z"/>
        <path stroke="#000" stroke-width=".7" d="M14.813 3.552h2.732v-.9h-2.733z"/>
        <path stroke="#000" stroke-linejoin="round" stroke-width=".5" d="M5.408 12.71c-.258 0-.258-.6-.517-.6-.258 0-.258.6-.516.6-.259 0-.259-.6-.517-.6-.26 0-.26.6-.518.6-.26 0-.26-.6-.519-.6"/>
        <path stroke="#000" stroke-linecap="square" stroke-width=".7" d="M3.125 2.998h6.8M3.125 4.697H6.95"/>
    </g>
</svg>
