<svg xmlns="http://www.w3.org/2000/svg" width="19" height="17" viewBox="0 0 19 17">
    <g fill="none" fill-rule="evenodd" stroke="#2D2D2D" stroke-width=".7">
        <path d="M13.939 1.04a3.98 3.98 0 0 0-.53-.04C11.45 1 9.81 2.425 9.394 4.332 8.976 2.425 7.338 1 5.377 1c-.18 0-.356.016-.53.04C2.694 1.223 1 3.095 1 5.381 1 9.856 9.391 15.88 9.391 15.88l.002-.003.003.003s8.39-6.024 8.39-10.498c0-2.286-1.693-4.158-3.847-4.343z"/>
        <path d="M16.565 5.224c0-1.69-1.32-3.062-2.947-3.062-.03 0-.06.004-.092.005M12.83 2.162a2.73 2.73 0 0 0-.87.582"/>
    </g>
</svg>
