<svg xmlns="http://www.w3.org/2000/svg" width="25" height="19" viewBox="0 0 25 19">
    <g fill="none" fill-rule="evenodd" stroke="#000" stroke-width=".7">
        <path d="M16.717 7.25l-7.109 5.802L5.88 8.507l7.11-5.803zM19.19 1.352h1.87c1.55 0 2.806 1.27 2.806 2.839 0 1.568-1.256 2.839-2.806 2.839H17.32"/>
        <path d="M20.133 2.45l-1.21-1.224L20.132 0M13.895 5.306l-2.18 1.78-1.025-1.251 2.18-1.78z"/>
        <path fill="#FFF" d="M5.345 14.52h9.41l1.963-5.598H3.741"/>
        <path d="M0 7.03h3.534l.408 1.737 2.086 8.87h6.51M14.606 17.513c0 .563-.458 1.02-1.023 1.02a1.022 1.022 0 0 1-1.023-1.02c0-.563.458-1.02 1.023-1.02s1.023.457 1.023 1.02z"/>
        <path fill="#FFF" d="M7.39 17.513a1.022 1.022 0 1 1-2.045 0c0-.563.458-1.02 1.023-1.02.564 0 1.022.457 1.022 1.02z"/>
    </g>
</svg>
