<svg xmlns="http://www.w3.org/2000/svg" width="99" height="72" viewBox="0 0 99 72">
    <g fill="none" fill-rule="evenodd">
        <path d="M-28-9h132v93H-28z"/>
        <path fill="#FFF" d="M62.555 29.798L35.954 51.26 22 34.448l26.601-21.462z"/>
        <path stroke="#000" d="M62.555 29.798L35.954 51.26 22 34.448l26.601-21.462z"/>
        <path fill="#FFF" d="M51.994 22.61l-8.156 6.58L40 24.568l8.156-6.581z"/>
        <path stroke="#000" d="M51.994 22.61l-8.156 6.58L40 24.568l8.156-6.581z"/>
        <path fill="#FFF" d="M20 56.129h35.209l7.35-20.705H14"/>
        <path stroke="#000" d="M20 56.129h35.209l7.35-20.705H14"/>
        <path stroke="#000" d="M0 28.986h13.224l1.528 6.426 7.805 32.806h24.359"/>
        <path fill="#FFF" d="M27.653 66.758c0 2.083-1.713 3.773-3.826 3.773S20 68.841 20 66.758s1.714-3.772 3.827-3.772 3.826 1.689 3.826 3.772"/>
        <path stroke="#000" d="M27.653 66.758c0 2.083-1.713 3.773-3.826 3.773S20 68.841 20 66.758s1.714-3.772 3.827-3.772 3.826 1.689 3.826 3.772z"/>
        <path fill="#FFF" d="M54.653 66.758c0 2.083-1.713 3.773-3.826 3.773S47 68.841 47 66.758s1.714-3.772 3.827-3.772 3.826 1.689 3.826 3.772"/>
        <path stroke="#000" d="M54.653 66.758c0 2.083-1.713 3.773-3.826 3.773S47 68.841 47 66.758s1.714-3.772 3.827-3.772 3.826 1.689 3.826 3.772z"/>
        <path fill="#FFF" d="M84.128 28.844C76.325 28.844 70 22.608 70 14.914 70 7.223 76.325.987 84.128.987s14.128 6.236 14.128 13.929c0 7.693-6.325 13.929-14.128 13.929"/>
        <path stroke="#377D2F" d="M84.128 28.844C76.325 28.844 70 22.608 70 14.914 70 7.223 76.325.987 84.128.987s14.128 6.236 14.128 13.929c0 7.693-6.325 13.929-14.128 13.929z"/>
        <g>
            <path fill="#FFF" d="M89.831 10.748l-7.455 8.42L79 15.355"/>
            <path stroke="#377D2F" d="M89.831 10.748l-7.455 8.42L79 15.355"/>
        </g>
    </g>
</svg>
