<?xml version="1.0" encoding="UTF-8" standalone="no"?>
<svg width="44px" height="44px" viewBox="0 0 44 44" version="1.1" xmlns="http://www.w3.org/2000/svg" xmlns:xlink="http://www.w3.org/1999/xlink">
    <!-- Generator: sketchtool 45.2 (43514) - http://www.bohemiancoding.com/sketch -->
    <title>CB669B68-104F-4853-BDD7-DD343AC122D1</title>
    <desc>Created with sketchtool.</desc>
    <defs></defs>
    <g id="SQC_FR3.1_Add-photos" stroke="none" stroke-width="1" fill="none" fill-rule="evenodd">
        <g id="SQC_FR3.1_3_Desktop_MyAccount_NewInquiry_PhotosAdded" transform="translate(-871.000000, -551.000000)" fill="#407AB1">
            <g id="Group" transform="translate(295.000000, 102.000000)">
                <g id="Photos" transform="translate(0.000000, 449.000000)">
                    <g id="ic_addphoto_l_blue" transform="translate(576.000000, 0.000000)">
                        <path d="M21.5,42 C10.1781626,42 1,32.8218374 1,21.5 C1,10.1781626 10.1781626,1 21.5,1 C32.8218374,1 42,10.1781626 42,21.5 C42,32.8218374 32.8218374,42 21.5,42 Z M21.5,41 C32.2695526,41 41,32.2695526 41,21.5 C41,10.7304474 32.2695526,2 21.5,2 C10.7304474,2 2,10.7304474 2,21.5 C2,32.2695526 10.7304474,41 21.5,41 Z" id="Combined-Shape"></path>
                        <rect id="Rectangle" x="21" y="13" width="1" height="17"></rect>
                        <rect id="Rectangle" x="13" y="21" width="17" height="1"></rect>
                    </g>
                </g>
            </g>
        </g>
    </g>
</svg>