<svg xmlns="http://www.w3.org/2000/svg" width="100" height="86" viewBox="0 0 100 86">
    <g fill="#222" fill-rule="nonzero">
        <path d="M73 50.33L21 50v5h1v-4h50v4.83h1z"/>
        <path d="M72.5 50.83h.5V35H47v15.83h25.5zm-24.5-.5V36h24v14.33l1-.33H48v.33zM21 63.406A3.406 3.406 0 1 0 24.406 60v1a2.406 2.406 0 1 1-1.345.41l-.56-.828A3.403 3.403 0 0 0 21 63.406zM67.263 62.767l.922-.388L65.922 57l-.922.388z"/>
        <path d="M23.263 62.767l.922-.388L21.922 57l-.922.388z"/>
        <path d="M79 58v-2.908L16 55h-1v3h64zm-63 0v-2h62v1H16v1zM40.991 50.238L42 50H30l.196.238-1.324-7.084-.983.183 1.324 7.084.077.409H41.898l.076-.409 1.34-7.169-.983-.183z"/>
        <path d="M44 44v-3H27v3l.5-.17L44 44zm-16-2.67V42h15v-.67V43H28v-1.67zM36 28.83h-1v12h1z"/>
        <path d="M31.715 28.119c-.01-.394.006-.53.083-.65.258-.403.905-.491 1.452-.14.264.168.718.732 1.148 1.417.189.3.356.598.467.828.05.105.086.19.104.244-.024-.072-.029-.111.074-.27l.841.54c.348-.542-1.222-3.044-2.095-3.602-.984-.631-2.257-.458-2.834.444-.222.347-.255.624-.24 1.216l.002.043 1-.026-.002-.044z"/>
        <path d="M40.279 28.146c.016-.592-.017-.87-.24-1.216-.576-.902-1.849-1.075-2.834-.444-.872.558-2.442 3.06-2.095 3.601l.842-.54c.102.16.097.2.074.27a2.22 2.22 0 0 1 .104-.243c.11-.23.278-.527.467-.828.43-.685.883-1.249 1.147-1.418.548-.35 1.195-.262 1.453.14.076.12.093.257.082.651v.044l.999.026.001-.043zM31.715 32.838c-.01-.394.006-.53.083-.65.258-.403.905-.492 1.452-.141.264.17.718.733 1.148 1.418.189.3.356.598.467.828.05.105.086.19.104.243-.024-.071-.029-.11.074-.27l.841.54c.348-.541-1.222-3.043-2.095-3.601-.984-.631-2.257-.458-2.834.444-.222.347-.255.624-.24 1.216l.002.043 1-.026-.002-.044z"/>
        <path d="M40.279 32.865c.016-.592-.017-.87-.24-1.217-.576-.9-1.849-1.074-2.834-.443-.872.558-2.442 3.06-2.095 3.601l.842-.54c.102.16.097.199.074.27a2.22 2.22 0 0 1 .104-.243c.11-.23.278-.528.467-.828.43-.685.883-1.249 1.147-1.418.548-.35 1.195-.262 1.453.14.076.12.093.257.082.65v.045l.999.026.001-.043zM86.05 24.677c.698-.418 1.141-1.23 1.116-2.097l-.082-2.796c-.076-1.575-1.349-2.284-2.843-1.382l-5.357 4.036-.709.68C76.157 25.282 75 27.723 75 30.513V55.33h1V30.512c0-2.51 1.047-4.72 2.889-6.693l.644-.623L84.8 19.23c.794-.477 1.244-.226 1.284.594l.081 2.787c.015.505-.244.979-.677 1.24l-4.917 3.738.606.796 4.872-3.707zM65 63.406A3.406 3.406 0 1 0 68.406 60v1a2.406 2.406 0 1 1-1.345.41l-.56-.828A3.403 3.403 0 0 0 65 63.406z"/>
    </g>
</svg>
