<svg xmlns="http://www.w3.org/2000/svg" width="44" height="44" viewBox="0 0 44 44">
    <g fill="none" fill-rule="evenodd">
        <path stroke="#46BD5D" d="M27 36l2.02 2L40 27.02 21 6l-2.63 2.63L18 9"/>
        <path stroke="#46BD5D" d="M14.98 7l-3.431 3.431c1.149 1.15 1.159 3.003.022 4.14-1.138 1.137-2.99 1.126-4.14-.022L4 17.979 24.02 38 35 27.02 14.98 7zM11.121 21L9 23.121M14.121 18L12 20.121M17.121 15L15 17.121M20.121 12L18 14.121"/>
        <path fill="#FFF" d="M20.031 12.28l-1.414 1.413M17.203 15.107l-2.122 2.122M13.667 17.643l-2.12 2.12M11.132 21.178L9.011 23.3"/>
        <path stroke="#46BD5D" d="M23.121 26.121a3 3 0 1 1-4.242-4.24 3 3 0 0 1 4.242 4.24z"/>
    </g>
</svg>
