<svg xmlns="http://www.w3.org/2000/svg" width="59" height="59" viewBox="0 0 59 59">
    <g fill="none" fill-rule="evenodd" stroke="#999">
        <path d="M56.5 29.5c0 14.912-12.088 27-27 27s-27-12.088-27-27 12.088-27 27-27 27 12.088 27 27"/>
        <path d="M35.375 41.438c5.827-2.416 6.312-8.712 6.312-17.26 0-6.54-5.302-11.842-11.841-11.842S18.005 17.64 18.005 24.177c0 3.326 1.371 6.332 3.579 8.483l.447.372M22.352 34.182c-1.749.508-5.818 2.296-5.686 7.911"/>
        <path d="M25.5 37v4.5h-5.645a7.355 7.355 0 0 0-7.355 7.355V50M46.5 50v-1.145a7.355 7.355 0 0 0-7.355-7.355H33.5V37"/>
        <path d="M37.5 23.43v7.24a7.83 7.83 0 0 1-7.831 7.83h-.338a7.83 7.83 0 0 1-7.831-7.83v-7.24l8-4.5 8 4.5zM25 26.5h9M25 26.5h9M28 31.5h3M28 31.5h3"/>
        <g>
            <path d="M25.563 41.496c0 3.338 7.937 3.338 7.937 0"/>
        </g>
        <g>
            <path d="M29.5 19v-3M29.5 19v-3"/>
        </g>
    </g>
</svg>
