<?xml version="1.0" encoding="utf-8"?>
<!-- Generator: Adobe Illustrator 22.0.1, SVG Export Plug-In . SVG Version: 6.00 Build 0)  -->
<svg version="1.1" id="Layer_1" xmlns="http://www.w3.org/2000/svg" xmlns:xlink="http://www.w3.org/1999/xlink" x="0px" y="0px"
	 width="53.4px" height="35.2px" viewBox="0 0 53.4 35.2" style="enable-background:new 0 0 53.4 35.2;" xml:space="preserve">
<title>ic_collection_point_tablet</title>
<desc>Created with Sketch.</desc>
<path d="M52.9,17.7l-6.1-3.1l-6.1-8.2c-0.1-0.1-0.2-0.2-0.4-0.2h-9.9V0.5c0-0.3-0.2-0.5-0.5-0.5H0.8c-0.3,0-0.5,0.2-0.5,0.5v30
	c0,0.3,0.2,0.5,0.5,0.5h7.8l0.1,0.5c0.4,2.1,2.3,3.7,4.5,3.7c2.2,0,4.1-1.6,4.5-3.7l0.1-0.5h17.8l0.1,0.5c0.4,2.1,2.3,3.7,4.5,3.7
	c2.2,0,4.1-1.6,4.5-3.7l0.1-0.5h7.8c0.3,0,0.5-0.2,0.5-0.5V18.1C53.1,18,53,17.8,52.9,17.7z M13.2,34.2c-2,0-3.7-1.6-3.7-3.7
	c0-2,1.6-3.7,3.7-3.7s3.7,1.6,3.7,3.7C16.8,32.5,15.2,34.2,13.2,34.2z M8.7,29.6L8.6,30H1.2V1h28.2v29H17.8l-0.1-0.5
	c-0.4-2.1-2.3-3.7-4.5-3.7S9.1,27.5,8.7,29.6z M40.2,26.9c2,0,3.7,1.6,3.7,3.7c0,2-1.6,3.7-3.7,3.7c-2,0-3.7-1.6-3.7-3.7
	C36.6,28.5,38.2,26.9,40.2,26.9z M40.2,25.9c-2.2,0-4.1,1.6-4.5,3.7L35.6,30h-5.3V7.2H40l6.1,8.1c0,0.1,0.1,0.1,0.2,0.1l5.9,3V30
	h-7.3l-0.1-0.5C44.3,27.5,42.4,25.9,40.2,25.9z"/>
</svg>
