<svg xmlns="http://www.w3.org/2000/svg" xmlns:xlink="http://www.w3.org/1999/xlink" width="88" height="48" viewBox="0 0 88 48">
    <defs>
        <filter id="a" width="363.3%" height="893.7%" x="-131.6%" y="-396.8%" filterUnits="objectBoundingBox">
            <feGaussianBlur in="SourceGraphic" stdDeviation="9.92453723 1.22619765"/>
        </filter>
        <path id="b" d="M37.567 16.566a6.083 6.083 0 1 1 12.167-.001 6.083 6.083 0 0 1-12.167.001zM29 16.649c0 2.504.637 4.856 1.748 6.915.329.609 12.817 20.335 12.817 20.335s12.489-19.45 12.83-20.05a14.514 14.514 0 0 0 1.904-7.2C58.299 8.558 51.741 2 43.65 2S29 8.558 29 16.649z"/>
    </defs>
    <g fill="none" fill-rule="evenodd">
        <ellipse cx="57.137" cy="38.717" fill="#000" filter="url(#a)" opacity=".597" rx="11.394" ry="3.78" transform="rotate(-23 57.137 38.717)"/>
        <use fill="#3E7BB1" xlink:href="#b"/>
        <path stroke="#FFF" d="M38.067 16.566a5.583 5.583 0 1 0 11.166 0 5.583 5.583 0 0 0-11.166 0zm-9.567.083C28.5 8.282 35.283 1.5 43.65 1.5s15.149 6.782 15.149 15.149c0 2.644-.685 5.19-1.97 7.447-.154.272-2.497 3.94-6.407 10.04l-.017.028a15251.464 15251.464 0 0 1-5.868 9.146l-.551.86-.424.659-.42-.663-.55-.87a13846.499 13846.499 0 0 1-5.862-9.27l-.022-.035c-3.918-6.203-6.249-9.91-6.4-10.19A15.012 15.012 0 0 1 28.5 16.65z"/>
    </g>
</svg>
