<svg xmlns="http://www.w3.org/2000/svg" width="180" height="114" viewBox="0 0 180 114">
    <g fill="none" fill-rule="evenodd">
        <path stroke="#46BD5D" stroke-dasharray="2,2" stroke-linejoin="round" d="M50.705 27.533l73.237 73.03M50.705 100.564l73.237-73.03M86.956 11.931V115.57M35.482 64.239h103.93M68.581 15.91l37.485 96.278M39.048 82.738l96.55-37.38M39.935 43.225l94.778 41.648M66.44 111.304l41.767-94.51"/>
        <path fill="#FFF" d="M104.943 35.842a16.448 16.448 0 0 0-2.101-.15c-7.782 0-14.28 5.424-15.935 12.685-1.655-7.26-8.155-12.684-15.935-12.684-.715 0-1.411.06-2.102.149-8.545.703-15.265 7.83-15.265 16.534 0 17.03 33.293 39.96 33.293 39.96l.009-.008.009.008s33.292-22.93 33.292-39.96c0-8.704-6.72-15.83-15.265-16.534"/>
        <path stroke="#2D2D2D" d="M104.943 35.842a16.448 16.448 0 0 0-2.101-.15c-7.782 0-14.28 5.424-15.935 12.685-1.655-7.26-8.155-12.684-15.935-12.684-.715 0-1.411.06-2.102.149-8.545.703-15.265 7.83-15.265 16.534 0 17.03 33.293 39.96 33.293 39.96l.009-.008.009.008s33.292-22.93 33.292-39.96c0-8.704-6.72-15.83-15.265-16.534z"/>
        <path stroke="#2D2D2D" d="M115.69 51.451c0-6.437-5.233-11.655-11.69-11.655-.124 0-.243.014-.365.019M100.61 40.298a11.653 11.653 0 0 0-3.453 1.709"/>
        <path fill="#FFF" d="M157.111 41.076l-28.132-8.316 5.374-18.08 28.133 8.317z"/>
        <path stroke="#3CB44B" d="M157.111 41.076l-28.132-8.316 5.374-18.08 28.133 8.317z"/>
        <path fill="#FFF" d="M164.06 26.853l-33.135-9.794 1.853-6.235 33.135 9.795z"/>
        <path stroke="#3CB44B" d="M164.06 26.853l-33.135-9.794 1.853-6.235 33.135 9.795z"/>
        <path stroke="#3CB44B" d="M148.171 16.09s-.853-12.447-3.767-12.904c-2.915-.457-7.42 5.108 3.767 12.904M149.494 16.482s7.518-9.974 10.212-8.772c2.694 1.2 3.43 8.315-10.212 8.772"/>
        <path fill="#FFF" d="M145.859 37.749l-6.253-1.848 6.358-21.386 6.252 1.848z"/>
        <path stroke="#3CB44B" d="M145.859 37.749l-6.253-1.848 6.358-21.386 6.252 1.848zM163.747 26.76l-31.26-9.24"/>
        <path fill="#FFF" d="M38.495 35.832l-12.733 3.685-8.44-20.384L34.68 14.11z"/>
        <path stroke="#46BD5D" d="M38.495 35.832l-12.733 3.685-8.44-20.384L34.68 14.11z"/>
        <path fill="#FFF" d="M34.58 13.402l-17.708 5.126-.995-3.42a.68.68 0 0 1 .465-.845l16.395-4.745a.683.683 0 0 1 .847.464l.996 3.42z"/>
        <path stroke="#46BD5D" d="M34.58 13.402l-17.708 5.126-.995-3.42a.68.68 0 0 1 .465-.845l16.395-4.745a.683.683 0 0 1 .847.464l.996 3.42z"/>
        <path fill="#FFF" d="M36.535 15.045L16.104 20.96l-.989-3.396 20.431-5.913z"/>
        <path stroke="#46BD5D" d="M36.535 15.045L16.104 20.96l-.989-3.396 20.431-5.913zM17.81 3.161c.358 1.232-1.09 1.651-.73 2.883.358 1.233 1.806.814 2.164 2.046.36 1.233-1.088 1.652-.73 2.885M21.831 1.997c.358 1.232-1.09 1.65-.73 2.883.359 1.233 1.806.814 2.165 2.047.359 1.232-1.088 1.651-.73 2.884M25.853.833c.357 1.232-1.09 1.652-.73 2.883.358 1.232 1.805.814 2.164 2.047.36 1.232-1.088 1.651-.73 2.884"/>
        <path stroke="#3CB44B" d="M3.037 92.397l.923 11.289 15.69 1.54 2.893-10.782"/>
        <path stroke="#3CB44B" stroke-width="1.083" d="M.886 92.01l23.855 2.238.35-3.717-23.854-2.239z"/>
        <path stroke="#3CB44B" d="M13.13 89.783l2.456-26.018M9.176 67.346c.527-.886.526-1.769-1.075-2.715-1.601-.947-4.634-.86-4.72-.714-.088.147 1.21 2.978 2.81 3.925 1.6.946 2.457.39 2.985-.496zM9.236 67.294s5.008 2.72 5.263 7.993M8.404 75.524c.528-.887.526-1.77-1.075-2.716-1.6-.947-4.635-.86-4.72-.714-.089.147 1.21 2.978 2.81 3.925 1.6.946 2.457.39 2.985-.495zM8.463 75.471s5.01 2.72 5.263 7.994M21.054 68.461c-.352-.969-.186-1.835 1.564-2.468 1.749-.632 4.713.018 4.772.178.057.16-1.747 2.7-3.497 3.332-1.748.633-2.488-.073-2.84-1.042zM21.005 68.399s-5.27 1.755-6.507 6.888M20.282 76.638c-.352-.969-.186-1.835 1.564-2.468 1.749-.632 4.713.018 4.772.178.057.16-1.747 2.7-3.497 3.332-1.749.633-2.487-.072-2.84-1.042zM15.268 63.772c-.875-.112-1.47-.575-1.27-2.148.202-1.572 1.855-3.564 2-3.545.144.018 1.374 2.377 1.173 3.95-.202 1.571-1.027 1.854-1.903 1.743zM20.232 76.576s-5.269 1.755-6.506 6.889M136.292 93.87l3.705 9.658 39.43-9.958-1.353-10.252a1.844 1.844 0 0 0-2.24-1.33l-38.207 9.65a1.838 1.838 0 0 0-1.335 2.233z"/>
        <path fill="#FFF" d="M139.361 86.755l2.552 10.044 32.955-8.324-2.551-10.043a1.752 1.752 0 0 0-2.128-1.264l-29.56 7.466a1.746 1.746 0 0 0-1.268 2.121"/>
        <path stroke="#3CB44B" d="M139.361 86.755l2.552 10.044 32.955-8.324-2.551-10.043a1.752 1.752 0 0 0-2.128-1.264l-29.56 7.466a1.746 1.746 0 0 0-1.268 2.121zM143.329 102.374l-3.13-12.324M176.283 94.05l-3.13-12.323M143.468 105.149l-1.292.326a.548.548 0 0 1-.666-.395l-.461-1.818 2.354-.595.461 1.819a.545.545 0 0 1-.396.663zM178.778 96.231l-1.293.327a.549.549 0 0 1-.665-.396l-.463-1.818 2.355-.594.461 1.817a.546.546 0 0 1-.395.664zM159.218 98.361l-1.342-5.282"/>
    </g>
</svg>
