<svg xmlns="http://www.w3.org/2000/svg" xmlns:xlink="http://www.w3.org/1999/xlink" width="219" height="115" viewBox="0 0 219 115">
    <defs>
        <path id="a" d="M22.269 0H0v22.6h22.268V0z"/>
    </defs>
    <g fill="none" fill-rule="evenodd">
        <path fill="#FFF" d="M201.95 89.5h-44.9a1.55 1.55 0 0 1-1.55-1.55V60.599a3.099 3.099 0 0 1 3.1-3.099h41.8a3.1 3.1 0 0 1 3.1 3.099V87.95a1.55 1.55 0 0 1-1.55 1.55"/>
        <path stroke="#222" d="M201.95 89.5h-44.9a1.55 1.55 0 0 1-1.55-1.55V60.599a3.099 3.099 0 0 1 3.1-3.099h41.8a3.1 3.1 0 0 1 3.1 3.099V87.95a1.55 1.55 0 0 1-1.55 1.55z"/>
        <path fill="#FFF" d="M161.5 57v32"/>
        <path stroke="#222" d="M161.5 57v32"/>
        <path fill="#FFF" d="M198.5 57v32"/>
        <path stroke="#222" d="M198.5 57v32"/>
        <g>
            <path fill="#FFF" d="M158.5 68v8"/>
            <path stroke="#222" d="M158.5 68v8"/>
        </g>
        <g>
            <path fill="#FFF" d="M35.429 89.723L34.005 87.5H22.244l-1.423 2.223"/>
            <path stroke="#222" stroke-linejoin="round" d="M35.429 89.723L34.005 87.5H22.244l-1.423 2.223"/>
            <g>
                <path fill="#FFF" d="M50.5 84.5h-44V58.937c0-.794.644-1.437 1.437-1.437h41.126c.793 0 1.437.643 1.437 1.437V84.5z"/>
                <path stroke="#222" d="M50.5 84.5h-44V58.937c0-.794.644-1.437 1.437-1.437h41.126c.793 0 1.437.643 1.437 1.437V84.5z"/>
                <path fill="#FFF" d="M.5 92.5h55v-3H.5z"/>
                <path stroke="#222" d="M.5 92.5h55v-3H.5z"/>
                <path fill="#FFF" d="M6 62.5h45"/>
                <path stroke="#222" d="M6 62.5h45"/>
                <path fill="#222" d="M30 60a1 1 0 1 1-2 0 1 1 0 0 1 2 0"/>
                <path fill="#FFF" d="M6.75 84.52L.551 89.118"/>
                <path stroke="#222" stroke-linejoin="round" d="M6.75 84.52L.551 89.118"/>
                <g>
                    <path fill="#FFF" d="M50.367 84.52l5.365 4.598"/>
                    <path stroke="#222" stroke-linejoin="round" d="M50.367 84.52l5.365 4.598"/>
                </g>
            </g>
        </g>
        <g stroke="#46BD5D" stroke-dasharray="2,2" stroke-linejoin="round">
            <path d="M26 77.136c-.025-10.706 18.511-11.146 28.167-9.333 11.38 2.134 14.871 4.558 24.716 7.806"/>
        </g>
        <g stroke="#000">
            <path d="M174.223 11.255L217.585.835l-25.753 29.61z"/>
            <path stroke-width=".968" d="M181.444 19.208l35.25-17.748"/>
            <path d="M181.444 19.208l1.032 7.722 3.56-2.8"/>
        </g>
        <g>
            <path fill="#222" d="M82.419 19A3.423 3.423 0 0 0 79 22.418v88.164A3.423 3.423 0 0 0 82.419 114h45.162a3.423 3.423 0 0 0 3.419-3.418V22.418A3.423 3.423 0 0 0 127.581 19H82.419zm0 96A4.423 4.423 0 0 1 78 110.582V22.418A4.423 4.423 0 0 1 82.419 18h45.162A4.423 4.423 0 0 1 132 22.418v88.164a4.423 4.423 0 0 1-4.419 4.418H82.419z"/>
            <path fill="#FFF" d="M78 95h54"/>
            <path fill="#222" d="M78 95h54v-1H78z"/>
            <path fill="#000" d="M105 101c-1.654 0-3 1.346-3 3s1.346 3 3 3 3-1.346 3-3-1.346-3-3-3m0 7c-2.206 0-4-1.794-4-4s1.794-4 4-4 4 1.794 4 4-1.794 4-4 4"/>
            <path fill="#FFF" d="M98 26h15"/>
            <path fill="#222" d="M98 26h15v-1H98z"/>
            <path fill="#FFF" d="M78 32h54"/>
            <path fill="#222" d="M78 32h54v-1H78z"/>
        </g>
        <path stroke="#46BD5D" stroke-dasharray="2,2" stroke-linejoin="round" d="M132.24 84.486c35.38-2.13 32.796-30.784 50.927-54.683"/>
        <g transform="translate(94 53)">
            <mask id="b" fill="#fff">
                <use xlink:href="#a"/>
            </mask>
            <path fill="#46BC5D" d="M14.15 13.846c-.091-.394-.031-.818 0-1.242l.425-4.696c-.758-.637-1.88-1.212-3.183-1.212-2.696 0-4.453 2.575-4.453 5.24 0 2.334 1.333 3.97 3.514 3.97 1.393 0 2.758-.697 3.697-2.06M11.15 0c6.454 0 11.119 5.029 11.119 11.21 0 3.272-1.393 5.908-4.423 5.908-1.606 0-2.788-.757-3.363-1.97h-.061c-1.06 1.273-2.605 2-4.15 2-2.727 0-4.726-2.06-4.726-5.15 0-3.303 2.272-6.545 5.938-6.545 1.362 0 2.454.485 3.362 1.122l1.212-.212-.546 6.21c-.03.303-.03.545-.03.636 0 1.788.909 2.818 2.515 2.818 1.848 0 3.152-1.484 3.152-4.696 0-5.696-4.091-10.24-10-10.24-5.907 0-10.027 4.574-10.027 10.21 0 5.666 4.15 10.21 10.028 10.21 2.576 0 4.848-.878 6.575-2.363l.605.939c-1.908 1.606-4.453 2.514-7.21 2.514C4.697 22.6 0 17.603 0 11.3 0 4.999 4.668 0 11.15 0" mask="url(#b)"/>
        </g>
    </g>
</svg>
