<svg xmlns="http://www.w3.org/2000/svg" xmlns:xlink="http://www.w3.org/1999/xlink" width="283" height="177" viewBox="0 0 283 177">
    <defs>
        <path id="a" d="M0 .885h40.681V.442H0v.443z"/>
    </defs>
    <g fill="none" fill-rule="evenodd">
        <path fill="#FFF" d="M0 0h283v177H0z"/>
        <path stroke="#46BD5D" stroke-dasharray="2,2" stroke-linejoin="round" d="M105.228 46.23l72.98 73.03M105.228 119.26l72.98-73.03M141.351 30.628v103.637M90.058 82.936h103.564M123.04 34.606l37.354 96.28M93.612 101.435l96.21-37.38M94.495 61.921l94.444 41.649M120.908 130.001l41.619-94.51"/>
        <path fill="#FFF" d="M159.812 54.538a16.308 16.308 0 0 0-2.092-.148c-7.755 0-14.231 5.423-15.88 12.684-1.649-7.26-8.125-12.684-15.88-12.684-.71 0-1.405.06-2.093.148-8.515.704-15.21 7.831-15.21 16.534 0 17.031 33.174 39.961 33.174 39.961l.009-.009.009.01s33.174-22.931 33.174-39.962c0-8.703-6.695-15.83-15.211-16.534"/>
        <path stroke="#2D2D2D" d="M159.812 54.538a16.308 16.308 0 0 0-2.092-.148c-7.755 0-14.231 5.423-15.88 12.684-1.649-7.26-8.125-12.684-15.88-12.684-.71 0-1.405.06-2.093.148-8.515.704-15.21 7.831-15.21 16.534 0 17.031 33.174 39.961 33.174 39.961l.009-.009.009.01s33.174-22.931 33.174-39.962c0-8.703-6.695-15.83-15.211-16.534z"/>
        <path fill="#FFF" d="M170.522 70.148c0-6.437-5.214-11.655-11.648-11.655-.124 0-.242.014-.365.018"/>
        <path stroke="#2D2D2D" d="M170.522 70.148c0-6.437-5.214-11.655-11.648-11.655-.124 0-.242.014-.365.018"/>
        <path fill="#FFF" d="M155.495 58.995c-1.248.377-2.409.96-3.44 1.708"/>
        <path stroke="#2D2D2D" d="M155.495 58.995c-1.248.377-2.409.96-3.44 1.708"/>
        <path stroke="#46BD5D" d="M210.28 40.799c6.355-2.667 6.854-9.551 6.813-18.897-.03-7.147-5.846-12.916-12.99-12.885-7.143.03-12.908 5.85-12.877 12.999a12.905 12.905 0 0 0 3.95 9.253l.49.405"/>
        <path fill="#FFF" d="M196.022 32.93c-1.908.564-6.345 2.538-6.173 8.674"/>
        <path stroke="#46BD5D" d="M196.022 32.93c-1.908.564-6.345 2.538-6.173 8.674M199.473 36.466l.021 4.448-6.165.027a8.036 8.036 0 0 0-7.999 8.076l.006 1.25M222.474 50.106l-.006-1.25c-.019-4.442-3.632-8.026-8.07-8.007l-6.165.027-.021-4.449"/>
        <path stroke="#46BD5D" d="M212.517 21.106l.034 7.913c.02 4.727-3.793 8.575-8.516 8.597h-.37c-4.724.022-8.57-3.794-8.592-8.521l-.033-7.913 8.717-4.957 8.76 4.88z"/>
        <path fill="#FFF" d="M198.877 25.505l9.831-.043"/>
        <path stroke="#46BD5D" d="M198.877 25.505l9.831-.043"/>
        <path fill="#FFF" d="M202.178 30.955l3.277-.014"/>
        <path stroke="#46BD5D" d="M202.178 30.955l3.277-.014"/>
        <path fill="#FFF" d="M199.563 40.91c.016 3.649 8.685 3.612 8.67-.037"/>
        <path stroke="#46BD5D" d="M199.563 40.91c.016 3.649 8.685 3.612 8.67-.037"/>
        <path fill="#FFF" d="M203.757 16.301l-.014-3.279"/>
        <path stroke="#46BD5D" d="M203.757 16.301l-.014-3.279"/>
        <path fill="#FFF" d="M98.35 50.226v-1.252a8.039 8.039 0 0 0-8.036-8.04h-6.167v-8.746H75.41v8.745h-6.167c-4.439 0-8.035 3.6-8.035 8.041v1.252"/>
        <path stroke="#46BD5D" d="M98.35 50.226v-1.252a8.039 8.039 0 0 0-8.036-8.04h-6.167v-8.746H75.41v8.745h-6.167c-4.439 0-8.035 3.6-8.035 8.041v1.252"/>
        <path fill="#FFF" d="M88.518 25.082v4.011c0 4.728-3.83 8.56-8.555 8.56h-.37c-4.725 0-8.555-3.832-8.555-8.56v-4.011"/>
        <path stroke="#46BD5D" d="M88.518 25.082v4.011c0 4.728-3.83 8.56-8.555 8.56h-.37c-4.725 0-8.555-3.832-8.555-8.56v-4.011"/>
        <path fill="#FFF" d="M71.585 20.162c3.095.647 10.307-2.276 14.202-4.373l2.73 4.92"/>
        <path stroke="#46BD5D" d="M71.585 20.162c3.095.647 10.307-2.276 14.202-4.373l2.73 4.92"/>
        <path fill="#FFF" d="M74.862 25.519h9.832"/>
        <path stroke="#46BD5D" d="M74.862 25.519h9.832"/>
        <path fill="#FFF" d="M78.14 30.985h3.277"/>
        <path stroke="#46BD5D" d="M78.14 30.985h3.277"/>
        <path fill="#FFF" d="M75.442 40.933c0 3.887 8.873 3.887 8.873 0"/>
        <path stroke="#46BD5D" d="M75.442 40.933c0 3.887 8.873 3.887 8.873 0M68.853 20.708v-2.446c0-5.443 4.892-9.854 10.926-9.854 6.033 0 10.924 4.411 10.924 9.854v2.446"/>
        <path stroke="#46BD5D" d="M71.585 25.628h-.896a1.837 1.837 0 0 1-1.836-1.837v-1.792c0-1.014.823-1.837 1.836-1.837h1.442v2.733M87.972 20.162h.895c1.013 0 1.836.823 1.836 1.837v1.792a1.837 1.837 0 0 1-1.836 1.837h-.895M88.518 20.708v2.187"/>
        <path fill="#FFF" d="M83.197 115.386a7.09 7.09 0 0 1-7.088 7.093 7.09 7.09 0 0 1-7.088-7.093s-1.99-.261-1.99-.913l-.839-3.971c0-.652.528-1.18 1.18-1.18h1.804c.68-3.21 3.524-5.619 6.933-5.619a7.09 7.09 0 0 1 6.932 5.618h1.804c.653 0 1.181.529 1.181 1.18l-.84 3.972c0 .652-1.99.913-1.99.913"/>
        <path stroke="#46BD5D" d="M83.197 115.386a7.09 7.09 0 0 1-7.088 7.093 7.09 7.09 0 0 1-7.088-7.093s-1.99-.261-1.99-.913l-.839-3.971c0-.652.528-1.18 1.18-1.18h1.804c.68-3.21 3.524-5.619 6.933-5.619a7.09 7.09 0 0 1 6.932 5.618h1.804c.653 0 1.181.529 1.181 1.18l-.84 3.972c0 .652-1.99.913-1.99.913z"/>
        <path fill="#FFF" d="M81.226 105.718s1.255 3.07 1.588 3.591c.47.733.978 1.425 1.63 1.483v-4.374c0-4.564-3.698-8.264-8.258-8.264h-.595c-4.56 0-8.258 3.7-8.258 8.264v4.374"/>
        <path stroke="#46BD5D" d="M81.226 105.718s1.255 3.07 1.588 3.591c.47.733.978 1.425 1.63 1.483v-4.374c0-4.564-3.698-8.264-8.258-8.264h-.595c-4.56 0-8.258 3.7-8.258 8.264v4.374"/>
        <path fill="#FFF" d="M80.868 112.69c-1.147-.688-8.923-.652-9.96 0"/>
        <path stroke="#46BD5D" d="M80.868 112.69c-1.147-.688-8.923-.652-9.96 0"/>
        <path fill="#FFF" d="M74.923 117.182c.544.157 1.387.157 1.93 0"/>
        <path stroke="#46BD5D" d="M74.923 117.182c.544.157 1.387.157 1.93 0"/>
        <path fill="#FFF" d="M82.661 105.528c-2.142.101-3.766.071-7.549 1.894-3.2 1.543-6.698-.333-6.698-.333"/>
        <path stroke="#46BD5D" d="M82.661 105.528c-2.142.101-3.766.071-7.549 1.894-3.2 1.543-6.698-.333-6.698-.333M72.988 122.148v2.504h-4.404a5.743 5.743 0 0 0-5.74 5.744v.894M89.375 131.29v-.894a5.741 5.741 0 0 0-5.74-5.744H79.23v-2.504"/>
        <path fill="#FFF" d="M73.037 124.65c0 2.606 6.193 2.606 6.193 0"/>
        <path stroke="#46BD5D" d="M73.037 124.65c0 2.606 6.193 2.606 6.193 0"/>
        <path fill="#FFF" d="M214.659 115.386a7.09 7.09 0 0 1-7.089 7.093 7.09 7.09 0 0 1-7.088-7.093s-1.989-.261-1.989-.913l-.84-3.971c0-.652.529-1.18 1.18-1.18h1.805a7.09 7.09 0 0 1 6.932-5.619 7.09 7.09 0 0 1 6.933 5.618h1.804c.652 0 1.18.529 1.18 1.18l-.838 3.972c0 .652-1.99.913-1.99.913"/>
        <path stroke="#46BD5D" d="M214.659 115.386a7.09 7.09 0 0 1-7.089 7.093 7.09 7.09 0 0 1-7.088-7.093s-1.989-.261-1.989-.913l-.84-3.971c0-.652.529-1.18 1.18-1.18h1.805a7.09 7.09 0 0 1 6.932-5.619 7.09 7.09 0 0 1 6.933 5.618h1.804c.652 0 1.18.529 1.18 1.18l-.838 3.972c0 .652-1.99.913-1.99.913z"/>
        <path fill="#FFF" d="M215.905 110.793v-4.375c0-4.564-3.698-8.263-8.257-8.263h-.596c-4.56 0-8.257 3.699-8.257 8.263v4.375"/>
        <path stroke="#46BD5D" d="M215.905 110.793v-4.375c0-4.564-3.698-8.263-8.257-8.263h-.596c-4.56 0-8.257 3.699-8.257 8.263v4.375"/>
        <path fill="#FFF" d="M212.33 112.69c-1.149-.688-8.923-.652-9.96 0"/>
        <path stroke="#46BD5D" d="M212.33 112.69c-1.149-.688-8.923-.652-9.96 0"/>
        <g>
            <path fill="#FFF" d="M206.385 117.182c.543.157 1.386.157 1.93 0"/>
            <path stroke="#46BD5D" d="M206.385 117.182c.543.157 1.386.157 1.93 0"/>
        </g>
        <path stroke="#46BD5D" d="M204.45 122.148v2.504h-4.405a5.742 5.742 0 0 0-5.74 5.744v.894M220.836 131.29v-.894a5.742 5.742 0 0 0-5.74-5.744h-4.404v-2.504"/>
        <g>
            <path fill="#FFF" d="M204.498 124.65c0 2.606 6.194 2.606 6.194 0"/>
            <path stroke="#46BD5D" d="M204.498 124.65c0 2.606 6.194 2.606 6.194 0"/>
        </g>
        <g>
            <path fill="#FFF" d="M200.624 109.321s8.359-.561 10.398-2.916v1.767s3.523-.506 4.357-1.684"/>
            <path stroke="#46BD5D" d="M200.624 109.321s8.359-.561 10.398-2.916v1.767s3.523-.506 4.357-1.684"/>
        </g>
        <g>
            <path fill="#FFF" d="M130.597 162.871V146.13c0-6.088 4.764-11.024 10.638-11.024h.767c5.876 0 10.64 4.936 10.64 11.024v16.741"/>
            <path stroke="#46BD5D" d="M130.597 162.871V146.13c0-6.088 4.764-11.024 10.638-11.024h.767c5.876 0 10.64 4.936 10.64 11.024v16.741"/>
        </g>
        <g>
            <path fill="#FFF" d="M148.773 146.273h.794c.653 0 1.18.529 1.18 1.181l-.838 3.97c0 .653-.98.913-.98.913a7.09 7.09 0 0 1-7.089 7.094 7.09 7.09 0 0 1-7.088-7.094s-.98-.26-.98-.913l-.84-3.97c0-.652.493-.41 1.145-.41"/>
            <path stroke="#46BD5D" d="M148.773 146.273h.794c.653 0 1.18.529 1.18 1.181l-.838 3.97c0 .653-.98.913-.98.913a7.09 7.09 0 0 1-7.089 7.094 7.09 7.09 0 0 1-7.088-7.094s-.98-.26-.98-.913l-.84-3.97c0-.652.493-.41 1.145-.41"/>
        </g>
        <g>
            <path fill="#FFF" d="M146.6 149.641c-1.149-.687-8.924-.651-9.962 0"/>
            <path stroke="#46BD5D" d="M146.6 149.641c-1.149-.687-8.924-.651-9.962 0"/>
        </g>
        <g>
            <path fill="#FFF" d="M140.654 154.134c.543.156 1.386.156 1.93 0"/>
            <path stroke="#46BD5D" d="M140.654 154.134c.543.156 1.386.156 1.93 0"/>
        </g>
        <path stroke="#46BD5D" d="M138.72 159.1v2.504h-4.405a5.742 5.742 0 0 0-5.74 5.744v.893M155.106 168.242v-.894a5.742 5.742 0 0 0-5.74-5.744h-4.405v-2.505"/>
        <g>
            <path fill="#FFF" d="M138.767 161.601c0 2.606 6.195 2.606 6.195 0"/>
            <path stroke="#46BD5D" d="M138.767 161.601c0 2.606 6.195 2.606 6.195 0"/>
        </g>
        <path stroke="#46BD5D" d="M147.466 141.838s-9.753 8.75-14.544 4.628"/>
        <g>
            <path fill="#FFF" d="M146.037 143.016s.504 2.727 3.53 3.256"/>
            <path stroke="#46BD5D" d="M146.037 143.016s.504 2.727 3.53 3.256"/>
        </g>
        <g>
            <path fill="#FFF" d="M54.831 49.906h49.525"/>
            <path stroke="#46BD5D" d="M54.831 49.906h49.525"/>
        </g>
        <g>
            <path fill="#FFF" d="M178.644 49.906h49.525"/>
            <path stroke="#46BD5D" d="M178.644 49.906h49.525"/>
        </g>
        <g>
            <path fill="#FFF" d="M55.716 131.326h39.796"/>
            <path stroke="#46BD5D" d="M55.716 131.326h39.796"/>
        </g>
        <g>
            <path fill="#FFF" d="M187.488 131.326h39.796"/>
            <path stroke="#46BD5D" d="M187.488 131.326h39.796"/>
        </g>
        <g transform="translate(121.16 168.054)">
            <mask id="b" fill="#fff">
                <use xlink:href="#a"/>
            </mask>
            <path fill="#FFF" d="M0 .443h40.681" mask="url(#b)"/>
            <path stroke="#46BD5D" d="M0 .443h40.681" mask="url(#b)"/>
        </g>
        <path stroke="#46BD5D" d="M117 169h46"/>
    </g>
</svg>
