<svg xmlns="http://www.w3.org/2000/svg" width="65" height="65" viewBox="0 0 65 65">
    <g fill="none" fill-rule="evenodd">
        <path fill="#EEE" d="M65 32.5C65 50.45 50.45 65 32.499 65 14.55 65 0 50.45 0 32.5 0 14.552 14.55 0 32.499 0 50.449 0 65 14.551 65 32.5z"/>
        <path fill="#FFF" d="M59.5 32.5c0 14.912-12.088 27-27 27s-27-12.088-27-27 12.088-27 27-27 27 12.088 27 27"/>
        <path stroke="#0074D0" d="M59.5 32.5c0 14.912-12.088 27-27 27s-27-12.088-27-27 12.088-27 27-27 27 12.088 27 27z"/>
        <path fill="#FFF" d="M49.5 53v-1.145a7.355 7.355 0 0 0-7.355-7.355H36.5v-8h-8v8h-5.645a7.355 7.355 0 0 0-7.355 7.355V53"/>
        <path stroke="#424242" d="M49.5 53v-1.145a7.355 7.355 0 0 0-7.355-7.355H36.5v-8h-8v8h-5.645a7.355 7.355 0 0 0-7.355 7.355V53"/>
        <path fill="#FFF" d="M40.5 30v3.669a7.83 7.83 0 0 1-7.831 7.831h-.338a7.83 7.83 0 0 1-7.831-7.831V30"/>
        <path stroke="#424242" d="M40.5 30v3.669a7.83 7.83 0 0 1-7.831 7.831h-.338a7.83 7.83 0 0 1-7.831-7.831V30"/>
        <path fill="#FFF" d="M25 25.5c2.833.592 9.436-2.082 13-4l2.5 4.5"/>
        <path stroke="#424242" d="M25 25.5c2.833.592 9.436-2.082 13-4l2.5 4.5"/>
        <path fill="#FFF" d="M28 29.5h9"/>
        <path stroke="#424242" d="M28 29.5h9"/>
        <path fill="#FFF" d="M31 34.5h3"/>
        <path stroke="#424242" d="M31 34.5h3"/>
        <g>
            <path fill="#FFF" d="M29.04 44.667c0 3.333 7.612 3.333 7.612 0"/>
            <path stroke="#424242" d="M29.04 44.667c0 3.333 7.612 3.333 7.612 0"/>
        </g>
        <path stroke="#424242" d="M22.5 26v-2.237c0-4.979 4.478-9.015 10-9.015s10 4.036 10 9.015V26"/>
        <path stroke="#424242" d="M25 30.5h-.819a1.68 1.68 0 0 1-1.681-1.681v-1.638a1.68 1.68 0 0 1 1.681-1.681H25.5V28M40 25.5h.819a1.68 1.68 0 0 1 1.681 1.681v1.638a1.68 1.68 0 0 1-1.681 1.681H40M40.5 26v2"/>
    </g>
</svg>
