<svg xmlns="http://www.w3.org/2000/svg" width="18" height="17" viewBox="0 0 18 17">
    <g fill="none" fill-rule="evenodd" stroke="#2D2D2D" stroke-width=".7">
        <path d="M10.861 15.063l.954.937L17 10.853 8.028 1 6.786 2.233l-.175.173"/>
        <path d="M5.185 1.469l-1.62 1.608c.542.539.547 1.408.01 1.94a1.39 1.39 0 0 1-1.955-.01L0 6.615 9.454 16l5.185-5.147L5.185 1.47zM3.363 8.031l-1.002.994M4.78 6.625l-1.002.994M6.196 5.219l-1.002.994M7.613 3.813l-1.002.994"/>
        <path d="M9.03 10.432c-.554.55-1.45.55-2.004 0a1.399 1.399 0 0 1 0-1.99 1.424 1.424 0 0 1 2.003 0c.554.55.554 1.44 0 1.99z"/>
    </g>
</svg>
