<svg xmlns="http://www.w3.org/2000/svg" width="65" height="65" viewBox="0 0 65 65">
    <g fill="none" fill-rule="evenodd">
        <path fill="#EEE" d="M65 32.5C65 50.45 50.45 65 32.499 65 14.55 65 0 50.45 0 32.5 0 14.552 14.55 0 32.499 0 50.449 0 65 14.551 65 32.5z"/>
        <path fill="#FFF" stroke="#0074D0" d="M59.5 32.5c0 14.912-12.088 27-27 27s-27-12.088-27-27 12.088-27 27-27 27 12.088 27 27"/>
        <path stroke="#424242" d="M38.375 44.438c5.827-2.416 6.312-8.712 6.312-17.26 0-6.54-5.302-11.842-11.841-11.842S21.005 20.64 21.005 27.177c0 3.326 1.371 6.332 3.579 8.483l.447.372M25.352 37.182c-1.749.508-5.818 2.296-5.686 7.911"/>
        <path stroke="#424242" d="M28.5 40v4.5h-5.645a7.355 7.355 0 0 0-7.355 7.355V53M49.5 53v-1.145a7.355 7.355 0 0 0-7.355-7.355H36.5V40"/>
        <path stroke="#424242" d="M40.5 26.43v7.24a7.83 7.83 0 0 1-7.831 7.83h-.338a7.83 7.83 0 0 1-7.831-7.83v-7.24l8-4.5 8 4.5z"/>
        <path stroke="#999" d="M28 29.5h9"/>
        <path stroke="#424242" d="M28 29.5h9"/>
        <path stroke="#999" d="M31 34.5h3"/>
        <path stroke="#424242" d="M31 34.5h3"/>
        <g stroke="#424242">
            <path d="M28.563 44.496c0 3.338 7.937 3.338 7.937 0"/>
        </g>
        <g>
            <path stroke="#999" d="M32.5 22v-3"/>
            <path stroke="#424242" d="M32.5 22v-3"/>
        </g>
    </g>
</svg>
