<svg xmlns="http://www.w3.org/2000/svg" width="43" height="43" viewBox="0 0 43 43">
    <g fill="none" fill-rule="evenodd" transform="translate(1 1)">
        <circle cx="20.5" cy="20.5" r="20.5" fill="#FFF" stroke="#979797"/>
        <g fill="#979797">
            <path d="M26.201 24.55a7.705 7.705 0 0 1-6.295 3.263 7.72 7.72 0 0 1-7.719-7.719c0-.305.023-.604.057-.9l-1.134-.435c-.065.436-.11.88-.11 1.335A8.906 8.906 0 0 0 19.906 29a8.893 8.893 0 0 0 7.436-4.011l-1.14-.438zM14.082 15.04a7.696 7.696 0 0 1 5.825-2.666 7.72 7.72 0 0 1 7.718 7.72c0 .048-.007.093-.007.14l1.164.448c.013-.196.03-.39.03-.589a8.906 8.906 0 0 0-8.905-8.906 8.886 8.886 0 0 0-6.995 3.403l1.17.45z"/>
        </g>
        <path fill="#979797" fill-rule="nonzero" d="M13.375 11.188h-1.188v4.75h4.75V14.75h-3.562zM26.438 29h1.187v-4.75h-4.75v1.188h3.563z"/>
    </g>
</svg>
