<svg xmlns="http://www.w3.org/2000/svg" width="22" height="18" viewBox="0 0 22 18">
    <g fill="#0074D0" fill-rule="evenodd">
        <path d="M2.5 14.631V17.5h1v-2.869a3.515 3.515 0 0 1-1 0zm0-3.47V.5h1v10.66a3.515 3.515 0 0 0-1 0zM10.5 7.84v9.66h1V7.84a3.515 3.515 0 0 1-1 0zm0-3.471V.5h1v3.869a3.515 3.515 0 0 0-1 0zM18.5 11.42v6.08h1v-6.08a2.865 2.865 0 0 1-1 0zm0-4.277V.5h1v6.643a2.865 2.865 0 0 0-1 0z"/>
        <path d="M5.5 13a2.5 2.5 0 1 1-5 0 2.5 2.5 0 0 1 5 0zm-1 0a1.5 1.5 0 1 0-3 0 1.5 1.5 0 0 0 3 0zM13.5 6a2.5 2.5 0 1 1-5 0 2.5 2.5 0 0 1 5 0zm-1 0a1.5 1.5 0 1 0-3 0 1.5 1.5 0 0 0 3 0zM21.5 9a2.5 2.5 0 1 1-5 0 2.5 2.5 0 0 1 5 0zm-1 0a1.5 1.5 0 1 0-3 0 1.5 1.5 0 0 0 3 0z"/>
    </g>
</svg>
