<svg xmlns="http://www.w3.org/2000/svg" xmlns:xlink="http://www.w3.org/1999/xlink" width="320" height="200" style="background:#fff" viewBox="0 0 320 200">
    <defs>
        <path id="a" d="M0 1h46V.5H0V1z"/>
    </defs>
    <g fill="none" fill-rule="evenodd">
        <path fill="#FFF" d="M0 0h320v200H0z"/>
        <path stroke="#46BD5D" stroke-dasharray="2,2" stroke-linejoin="round" d="M118.985 52.238l82.521 82.52M118.985 134.758l82.521-82.52M159.832 34.608v117.104M101.832 93.713h117.104M139.127 39.103l42.237 108.79M105.85 114.616L214.64 72.38M106.85 69.968l106.792 47.06M136.716 146.894l47.06-106.792"/>
        <path fill="#FFF" d="M180.706 61.625c-.776-.1-1.562-.168-2.366-.168-8.768 0-16.09 6.128-17.955 14.332-1.865-8.204-9.188-14.332-17.956-14.332-.804 0-1.59.068-2.367.168-9.629.795-17.2 8.848-17.2 18.682 0 19.244 37.512 45.154 37.512 45.154l.01-.01.01.01s37.512-25.91 37.512-45.154c0-9.834-7.57-17.887-17.2-18.682"/>
        <path stroke="#2D2D2D" d="M180.706 61.625c-.776-.1-1.562-.168-2.366-.168-8.768 0-16.09 6.128-17.955 14.332-1.865-8.204-9.188-14.332-17.956-14.332-.804 0-1.59.068-2.367.168-9.629.795-17.2 8.848-17.2 18.682 0 19.244 37.512 45.154 37.512 45.154l.01-.01.01.01s37.512-25.91 37.512-45.154c0-9.834-7.57-17.887-17.2-18.682z"/>
        <path fill="#FFF" d="M192.816 79.264c0-7.274-5.896-13.17-13.17-13.17-.14 0-.275.016-.414.02"/>
        <path stroke="#2D2D2D" d="M192.816 79.264c0-7.274-5.896-13.17-13.17-13.17-.14 0-.275.016-.414.02"/>
        <path fill="#FFF" d="M175.825 66.66a13.079 13.079 0 0 0-3.89 1.932"/>
        <path stroke="#2D2D2D" d="M175.825 66.66a13.079 13.079 0 0 0-3.89 1.932"/>
        <path stroke="#46BD5D" d="M237.773 46.1c7.185-3.013 7.75-10.792 7.703-21.352-.035-8.076-6.61-14.595-14.688-14.56-8.078.035-14.596 6.611-14.56 14.688a14.577 14.577 0 0 0 4.465 10.457l.554.457"/>
        <path fill="#FFF" d="M221.65 37.21c-2.157.636-7.175 2.866-6.98 9.8"/>
        <path stroke="#46BD5D" d="M221.65 37.21c-2.157.636-7.175 2.866-6.98 9.8M225.553 41.204l.024 5.027-6.971.03a9.084 9.084 0 0 0-9.045 9.125l.006 1.413M251.56 56.617l-.006-1.413a9.084 9.084 0 0 0-9.125-9.046l-6.971.03-.024-5.027"/>
        <path stroke="#46BD5D" d="M240.302 23.849l.038 8.94c.024 5.343-4.288 9.69-9.63 9.715h-.418c-5.341.025-9.69-4.287-9.714-9.628l-.038-8.941 9.857-5.601 9.905 5.514z"/>
        <path fill="#FFF" d="M224.879 28.819l11.116-.048"/>
        <path stroke="#46BD5D" d="M224.879 28.819l11.116-.048"/>
        <path fill="#FFF" d="M228.611 34.978l3.705-.016"/>
        <path stroke="#46BD5D" d="M228.611 34.978l3.705-.016"/>
        <path fill="#FFF" d="M225.654 46.226c.018 4.123 9.821 4.081 9.804-.042"/>
        <path stroke="#46BD5D" d="M225.654 46.226c.018 4.123 9.821 4.081 9.804-.042"/>
        <path fill="#FFF" d="M230.397 18.42l-.016-3.706"/>
        <path stroke="#46BD5D" d="M230.397 18.42l-.016-3.706"/>
        <path fill="#FFF" d="M111.209 56.752v-1.414a9.086 9.086 0 0 0-9.087-9.086h-6.973V36.37h-9.881v9.882h-6.973a9.085 9.085 0 0 0-9.086 9.086v1.414"/>
        <path stroke="#46BD5D" d="M111.209 56.752v-1.414a9.086 9.086 0 0 0-9.087-9.086h-6.973V36.37h-9.881v9.882h-6.973a9.085 9.085 0 0 0-9.086 9.086v1.414"/>
        <path fill="#FFF" d="M100.09 28.34v4.534a9.673 9.673 0 0 1-9.672 9.673h-.42c-5.341 0-9.672-4.331-9.672-9.673V28.34"/>
        <path stroke="#46BD5D" d="M100.09 28.34v4.534a9.673 9.673 0 0 1-9.672 9.673h-.42c-5.341 0-9.672-4.331-9.672-9.673V28.34"/>
        <path fill="#FFF" d="M80.944 22.782c3.5.73 11.654-2.571 16.06-4.941l3.086 5.559"/>
        <path stroke="#46BD5D" d="M80.944 22.782c3.5.73 11.654-2.571 16.06-4.941l3.086 5.559"/>
        <path fill="#FFF" d="M84.65 28.835h11.117"/>
        <path stroke="#46BD5D" d="M84.65 28.835h11.117"/>
        <path fill="#FFF" d="M88.356 35.011h3.706"/>
        <path stroke="#46BD5D" d="M88.356 35.011h3.706"/>
        <path fill="#FFF" d="M85.306 46.252c0 4.392 10.033 4.392 10.033 0"/>
        <path stroke="#46BD5D" d="M85.306 46.252c0 4.392 10.033 4.392 10.033 0M77.856 23.4v-2.765c0-6.15 5.53-11.135 12.354-11.135 6.822 0 12.352 4.985 12.352 11.135V23.4"/>
        <path stroke="#46BD5D" d="M80.944 28.958h-1.013a2.077 2.077 0 0 1-2.076-2.076v-2.025c0-1.146.93-2.076 2.076-2.076h1.63v3.09M99.474 22.782h1.012c1.146 0 2.076.93 2.076 2.076v2.025c0 1.146-.93 2.076-2.076 2.076h-1.012M100.09 23.4v2.47"/>
        <path fill="#FFF" d="M94.074 130.38a8.015 8.015 0 0 1-16.029 0s-2.25-.295-2.25-1.032l-.949-4.487c0-.737.597-1.334 1.334-1.334h2.04a8.016 8.016 0 0 1 15.678 0h2.04c.738 0 1.335.597 1.335 1.334l-.949 4.487c0 .737-2.25 1.032-2.25 1.032"/>
        <path stroke="#46BD5D" d="M94.074 130.38a8.015 8.015 0 0 1-16.029 0s-2.25-.295-2.25-1.032l-.949-4.487c0-.737.597-1.334 1.334-1.334h2.04a8.016 8.016 0 0 1 15.678 0h2.04c.738 0 1.335.597 1.335 1.334l-.949 4.487c0 .737-2.25 1.032-2.25 1.032z"/>
        <path fill="#FFF" d="M91.846 119.455s1.419 3.469 1.796 4.058c.53.828 1.105 1.61 1.842 1.676v-4.943a9.337 9.337 0 0 0-9.337-9.337h-.673a9.337 9.337 0 0 0-9.337 9.337v4.943"/>
        <path stroke="#46BD5D" d="M91.846 119.455s1.419 3.469 1.796 4.058c.53.828 1.105 1.61 1.842 1.676v-4.943a9.337 9.337 0 0 0-9.337-9.337h-.673a9.337 9.337 0 0 0-9.337 9.337v4.943"/>
        <path fill="#FFF" d="M91.441 127.333c-1.298-.777-10.09-.736-11.263 0"/>
        <path stroke="#46BD5D" d="M91.441 127.333c-1.298-.777-10.09-.736-11.263 0"/>
        <path fill="#FFF" d="M84.719 132.41c.615.176 1.568.176 2.183 0"/>
        <path stroke="#46BD5D" d="M84.719 132.41c.615.176 1.568.176 2.183 0"/>
        <path fill="#FFF" d="M93.469 119.241c-2.423.114-4.26.08-8.536 2.14-3.618 1.743-7.574-.377-7.574-.377"/>
        <path stroke="#46BD5D" d="M93.469 119.241c-2.423.114-4.26.08-8.536 2.14-3.618 1.743-7.574-.377-7.574-.377M82.53 138.02v2.83h-4.98a6.491 6.491 0 0 0-6.49 6.49v1.01M101.06 148.35v-1.01a6.49 6.49 0 0 0-6.49-6.49h-4.981v-2.83"/>
        <path fill="#FFF" d="M82.586 140.847c0 2.946 7.003 2.946 7.003 0"/>
        <path stroke="#46BD5D" d="M82.586 140.847c0 2.946 7.003 2.946 7.003 0"/>
        <path fill="#FFF" d="M242.724 130.38a8.015 8.015 0 0 1-16.03 0s-2.25-.295-2.25-1.032l-.95-4.487c0-.737.599-1.334 1.336-1.334h2.04a8.016 8.016 0 0 1 15.678 0h2.04c.737 0 1.335.597 1.335 1.334l-.95 4.487c0 .737-2.25 1.032-2.25 1.032"/>
        <path stroke="#46BD5D" d="M242.724 130.38a8.015 8.015 0 0 1-16.03 0s-2.25-.295-2.25-1.032l-.95-4.487c0-.737.599-1.334 1.336-1.334h2.04a8.016 8.016 0 0 1 15.678 0h2.04c.737 0 1.335.597 1.335 1.334l-.95 4.487c0 .737-2.25 1.032-2.25 1.032z"/>
        <path fill="#FFF" d="M244.133 125.19v-4.944a9.337 9.337 0 0 0-9.337-9.337h-.673a9.337 9.337 0 0 0-9.337 9.337v4.943"/>
        <path stroke="#46BD5D" d="M244.133 125.19v-4.944a9.337 9.337 0 0 0-9.337-9.337h-.673a9.337 9.337 0 0 0-9.337 9.337v4.943"/>
        <path fill="#FFF" d="M240.09 127.333c-1.298-.777-10.09-.736-11.262 0"/>
        <path stroke="#46BD5D" d="M240.09 127.333c-1.298-.777-10.09-.736-11.262 0"/>
        <g>
            <path fill="#FFF" d="M233.368 132.41c.614.176 1.567.176 2.183 0"/>
            <path stroke="#46BD5D" d="M233.368 132.41c.614.176 1.567.176 2.183 0"/>
        </g>
        <path stroke="#46BD5D" d="M231.18 138.02v2.83h-4.98a6.49 6.49 0 0 0-6.491 6.49v1.01M249.709 148.35v-1.01a6.49 6.49 0 0 0-6.49-6.49h-4.981v-2.83"/>
        <g>
            <path fill="#FFF" d="M231.234 140.847c0 2.946 7.004 2.946 7.004 0"/>
            <path stroke="#46BD5D" d="M231.234 140.847c0 2.946 7.004 2.946 7.004 0"/>
        </g>
        <g>
            <path fill="#FFF" d="M226.855 123.527s9.45-.634 11.757-3.295v1.996s3.983-.571 4.927-1.902"/>
            <path stroke="#46BD5D" d="M226.855 123.527s9.45-.634 11.757-3.295v1.996s3.983-.571 4.927-1.902"/>
        </g>
        <g>
            <path fill="#FFF" d="M147.672 184.035v-18.917c0-6.879 5.386-12.456 12.029-12.456h.867c6.644 0 12.03 5.577 12.03 12.456v18.917"/>
            <path stroke="#46BD5D" d="M147.672 184.035v-18.917c0-6.879 5.386-12.456 12.029-12.456h.867c6.644 0 12.03 5.577 12.03 12.456v18.917"/>
        </g>
        <g>
            <path fill="#FFF" d="M168.224 165.28h.898c.738 0 1.335.598 1.335 1.335l-.948 4.486c0 .738-1.11 1.032-1.11 1.032a8.015 8.015 0 0 1-16.03 0s-1.108-.294-1.108-1.032l-.95-4.486c0-.737.559-.463 1.296-.463"/>
            <path stroke="#46BD5D" d="M168.224 165.28h.898c.738 0 1.335.598 1.335 1.335l-.948 4.486c0 .738-1.11 1.032-1.11 1.032a8.015 8.015 0 0 1-16.03 0s-1.108-.294-1.108-1.032l-.95-4.486c0-.737.559-.463 1.296-.463"/>
        </g>
        <g>
            <path fill="#FFF" d="M165.767 169.086c-1.3-.777-10.09-.736-11.264 0"/>
            <path stroke="#46BD5D" d="M165.767 169.086c-1.3-.777-10.09-.736-11.264 0"/>
        </g>
        <g>
            <path fill="#FFF" d="M159.044 174.162c.614.177 1.567.177 2.182 0"/>
            <path stroke="#46BD5D" d="M159.044 174.162c.614.177 1.567.177 2.182 0"/>
        </g>
        <path stroke="#46BD5D" d="M156.856 179.773v2.83h-4.98a6.49 6.49 0 0 0-6.492 6.49v1.01M175.385 190.103v-1.01a6.49 6.49 0 0 0-6.49-6.49h-4.981v-2.83"/>
        <g>
            <path fill="#FFF" d="M156.91 182.6c0 2.945 7.004 2.945 7.004 0"/>
            <path stroke="#46BD5D" d="M156.91 182.6c0 2.945 7.004 2.945 7.004 0"/>
        </g>
        <path stroke="#46BD5D" d="M166.746 160.27s-11.028 9.886-16.446 5.228"/>
        <g>
            <path fill="#FFF" d="M165.13 161.6s.57 3.081 3.992 3.68"/>
            <path stroke="#46BD5D" d="M165.13 161.6s.57 3.081 3.992 3.68"/>
        </g>
        <g>
            <path fill="#FFF" d="M62 56.391h56"/>
            <path stroke="#46BD5D" d="M62 56.391h56"/>
        </g>
        <g>
            <path fill="#FFF" d="M202 56.391h56"/>
            <path stroke="#46BD5D" d="M202 56.391h56"/>
        </g>
        <g>
            <path fill="#FFF" d="M63 148.391h45"/>
            <path stroke="#46BD5D" d="M63 148.391h45"/>
        </g>
        <g>
            <path fill="#FFF" d="M212 148.391h45"/>
            <path stroke="#46BD5D" d="M212 148.391h45"/>
        </g>
        <g transform="translate(137 189.891)">
            <mask id="b" fill="#fff">
                <use xlink:href="#a"/>
            </mask>
            <path fill="#FFF" d="M0 .5h46" mask="url(#b)"/>
            <path stroke="#46BD5D" d="M0 .5h46" mask="url(#b)"/>
        </g>
    </g>
</svg>
