<svg xmlns="http://www.w3.org/2000/svg" width="59" height="59" style="background:#fff" viewBox="0 0 59 59">
    <g fill="none" fill-rule="evenodd">
        <path fill="#FFF" d="M56.5 29.5c0 14.912-12.088 27-27 27s-27-12.088-27-27 12.088-27 27-27 27 12.088 27 27"/>
        <path stroke="#999" d="M56.5 29.5c0 14.912-12.088 27-27 27s-27-12.088-27-27 12.088-27 27-27 27 12.088 27 27z"/>
        <path fill="#FFF" d="M46.5 50v-1.145a7.355 7.355 0 0 0-7.355-7.355H33.5v-8h-8v8h-5.645a7.355 7.355 0 0 0-7.355 7.355V50"/>
        <path stroke="#999" d="M46.5 50v-1.145a7.355 7.355 0 0 0-7.355-7.355H33.5v-8h-8v8h-5.645a7.355 7.355 0 0 0-7.355 7.355V50"/>
        <path fill="#FFF" d="M37.5 27v3.669a7.83 7.83 0 0 1-7.831 7.831h-.338a7.83 7.83 0 0 1-7.831-7.831V27"/>
        <path stroke="#999" d="M37.5 27v3.669a7.83 7.83 0 0 1-7.831 7.831h-.338a7.83 7.83 0 0 1-7.831-7.831V27"/>
        <path fill="#FFF" d="M22 22.5c2.833.592 9.436-2.082 13-4l2.5 4.5"/>
        <path stroke="#999" d="M22 22.5c2.833.592 9.436-2.082 13-4l2.5 4.5"/>
        <path fill="#FFF" d="M25 26.5h9"/>
        <path stroke="#999" d="M25 26.5h9"/>
        <path fill="#FFF" d="M28 31.5h3"/>
        <path stroke="#999" d="M28 31.5h3"/>
        <g>
            <path fill="#FFF" d="M26.04 41.667c0 3.333 7.612 3.333 7.612 0"/>
            <path stroke="#999" d="M26.04 41.667c0 3.333 7.612 3.333 7.612 0"/>
        </g>
        <path stroke="#999" d="M19.5 23v-2.237c0-4.979 4.478-9.015 10-9.015s10 4.036 10 9.015V23"/>
        <path stroke="#999" d="M22 27.5h-.819a1.68 1.68 0 0 1-1.681-1.681v-1.638a1.68 1.68 0 0 1 1.681-1.681H22.5V25M37 22.5h.819a1.68 1.68 0 0 1 1.681 1.681v1.638a1.68 1.68 0 0 1-1.681 1.681H37M37.5 23v2"/>
    </g>
</svg>
