<svg xmlns="http://www.w3.org/2000/svg" width="18" height="20" viewBox="0 0 18 20">
    <g fill="none" fill-rule="evenodd">
        <path stroke="#222" d="M12.5 1.5H.5v18h17v-13h-5v-5z"/>
        <path fill="#000" fill-rule="nonzero" d="M10.21 11.485c.21.166.48.344.806.535a9.573 9.573 0 0 1 1.123-.067c.941 0 1.507.156 1.7.468.102.14.108.306.019.497 0 .007-.004.013-.01.02l-.02.018v.01c-.038.242-.265.363-.68.363-.308 0-.676-.064-1.105-.191a7.019 7.019 0 0 1-1.248-.506c-1.414.152-2.669.417-3.763.793-.98 1.668-1.754 2.502-2.323 2.502a.56.56 0 0 1-.27-.067l-.23-.114a1.026 1.026 0 0 0-.057-.048c-.064-.064-.083-.178-.058-.344.058-.255.237-.546.538-.874.3-.328.723-.635 1.267-.922.09-.057.163-.038.221.058.013.012.02.025.02.038.332-.542.674-1.169 1.026-1.882.436-.866.768-1.7.999-2.503a7.688 7.688 0 0 1-.293-1.524c-.042-.493-.02-.9.062-1.218.07-.254.205-.382.404-.382h.21c.148 0 .26.048.337.144.115.133.144.35.086.65a.207.207 0 0 1-.038.076c.006.019.01.044.01.076v.287c-.013.783-.058 1.394-.135 1.834.352 1.044.82 1.802 1.402 2.273zm-5.53 3.927c.333-.153.771-.656 1.315-1.51a5.461 5.461 0 0 0-.84.803c-.233.28-.392.515-.475.707zm3.82-8.79c-.095.268-.102.689-.018 1.262.006-.045.028-.185.067-.42 0-.02.022-.156.067-.411a.215.215 0 0 1 .038-.077c-.006-.006-.01-.012-.01-.019 0-.006 0-.01-.004-.014-.003-.003-.005-.008-.005-.014a.548.548 0 0 0-.125-.344c0 .006-.003.012-.01.019v.019zm-1.19 6.315a14.134 14.134 0 0 1 2.727-.773 1.45 1.45 0 0 1-.125-.091 1.714 1.714 0 0 1-.154-.13c-.486-.426-.892-.986-1.219-1.68-.173.547-.438 1.175-.797 1.881-.192.357-.336.621-.432.793zm6.202-.153c-.154-.152-.602-.229-1.344-.229.486.179.883.268 1.19.268.09 0 .148-.003.173-.01 0-.006-.006-.016-.019-.029z"/>
        <path stroke="#222" d="M12.53 1.328l5.27 5.047"/>
    </g>
</svg>
