<?xml version="1.0" encoding="UTF-8" standalone="no"?>
<svg width="17px" height="24px" viewBox="0 0 17 24" version="1.1" xmlns="http://www.w3.org/2000/svg" xmlns:xlink="http://www.w3.org/1999/xlink">
    <!-- Generator: sketchtool 45.2 (43514) - http://www.bohemiancoding.com/sketch -->
    <title>6031C890-AA26-4058-8153-8C28411484D3</title>
    <desc>Created with sketchtool.</desc>
    <defs></defs>
    <g id="L_FR1.2_Loyalty-program-information" stroke="none" stroke-width="1" fill="none" fill-rule="evenodd">
        <g id="L_FR1.2_2.7_Mobile_MyAccount_ScanExportCard" transform="translate(-15.000000, -81.000000)" fill="#000000">
            <g id="saveSummery" transform="translate(15.000000, 81.000000)">
                <path d="M8.05263158,1.80999712 L5.34471053,4.58450621 C5.26463158,4.66871865 5.13310526,4.66690763 5.05078947,4.57997866 L4.71347368,4.21596362 C4.63115789,4.12948741 4.62847368,3.99094437 4.70855263,3.90673194 L8.46107895,0.061936258 C8.54071053,-0.0222761768 8.67223684,-0.0204651567 8.755,0.0664638083 L9.09231579,0.430478849 C9.12664831,0.466735447 9.14705044,0.51189198 9.15335987,0.558360175 L12.5236316,3.96921213 C12.6032632,4.05251906 12.6014737,4.18970383 12.5196053,4.27527453 L12.1496316,4.63340376 C12.0677632,4.71942721 11.9375789,4.72123823 11.8583947,4.63838406 L8.94781579,1.69237441 L8.94781579,15.3976545 L8.05263158,15.3976545 L8.05263158,1.80999712 Z M0.894736842,23.0944899 L16.1052632,23.0944899 L16.1052632,7.70081906 L10.7368421,7.70081906 L10.7368421,6.79530901 L17,6.79530901 L17,24 L0,24 L0,6.79530901 L6.26315789,6.79530901 L6.26315789,7.70081906 L0.894736842,7.70081906 L0.894736842,23.0944899 Z" id="Btn-Share"></path>
            </g>
        </g>
    </g>
</svg>